<?xml version="1.0" encoding="UTF-8"?>
<!DOCTYPE svg PUBLIC "-//W3C//DTD SVG 1.1//EN" "http://www.w3.org/Graphics/SVG/1.1/DTD/svg11.dtd">
<!-- Creator: CorelDRAW 2019 (64-Bit) -->
<svg xmlns="http://www.w3.org/2000/svg" xml:space="preserve" width="198px" height="34px" version="1.1" style="shape-rendering:geometricPrecision; text-rendering:geometricPrecision; image-rendering:optimizeQuality; fill-rule:evenodd; clip-rule:evenodd"
viewBox="0 0 198 34.07"
 xmlns:xlink="http://www.w3.org/1999/xlink">
 <defs>
  <style type="text/css">
   <![CDATA[
    .fil0 {fill:#FEFEFE}
    .fil3 {fill:#2977BC}
    .fil2 {fill:#2E3192}
    .fil1 {fill:#FEFEFE}
    .fil4 {fill:#FEFEFE;fill-rule:nonzero}
   ]]>
  </style>
 </defs>
 <g id="Слой_x0020_1">
  <metadata id="CorelCorpID_0Corel-Layer"/>
  <g id="_2313398546688">
   <path class="fil0" d="M27.5 30.57c-3.78,0.52 -7.55,1.42 -9.03,2.94 2.04,-1.28 6.1,-1.96 9.79,-2.09 0,0 1.65,-5.48 4.93,-16.41 -2.73,0.3 -5.7,1.47 -8.94,3.53 2.75,-1.07 5.19,-1.74 7.31,-1.96 -2.7,9.32 -4.06,13.99 -4.06,13.99z"/>
   <path class="fil0" d="M29.07 31.66c-3.23,0.4 -7.2,0.33 -9.33,1.76 2.1,-0.97 6.38,-0.93 10.06,-0.98 0,0 1.77,-4.7 5.32,-14.07 -0.9,0.06 -1.82,0.18 -2.78,0.4l-0.32 1.02c0.49,-0.05 0.97,-0.09 1.44,-0.12 -2.93,8 -4.39,11.99 -4.39,11.99z"/>
   <path class="fil0" d="M30.15 33.23c-2.04,-0.29 -5.82,-0.97 -9.33,0.24 3.16,-0.68 7.11,0.19 10.01,0.6 0,0 2.07,-4.52 6.18,-13.55 -0.78,-0.02 -1.57,0 -2.4,0.09l-0.4 1.05c0.37,-0.01 0.72,0 1.06,0.01 -3.41,7.71 -5.12,11.56 -5.12,11.56l0 0z"/>
   <path class="fil0" d="M9.51 30.57c3.77,0.52 7.55,1.42 9.04,2.94 -2.06,-1.28 -6.11,-1.96 -9.81,-2.09 0,0 -1.63,-5.48 -4.92,-16.41 2.73,0.3 5.71,1.47 8.93,3.53 -2.75,-1.07 -5.18,-1.74 -7.31,-1.96 2.71,9.32 4.07,13.99 4.07,13.99z"/>
   <path class="fil0" d="M7.95 31.66c3.22,0.4 7.2,0.33 9.32,1.76 -2.1,-0.97 -6.38,-0.93 -10.06,-0.98 0,0 -1.78,-4.7 -5.32,-14.07 0.9,0.06 1.83,0.18 2.78,0.4l0.32 1.02c-0.5,-0.05 -0.97,-0.09 -1.43,-0.12 2.92,8 4.39,11.99 4.39,11.99l0 0z"/>
   <path class="fil0" d="M6.86 33.23c2.04,-0.29 5.81,-0.97 9.32,0.24 -3.15,-0.68 -7.11,0.19 -10.01,0.6 0,0 -2.05,-4.52 -6.17,-13.55 0.77,-0.02 1.57,0 2.4,0.09l0.4 1.05c-0.36,-0.01 -0.71,0 -1.07,0.01 3.43,7.71 5.13,11.56 5.13,11.56z"/>
  </g>
  <path class="fil1" d="M18.5 6.52c7.1,0 12.85,5.76 12.85,12.85 0,7.1 -5.75,12.86 -12.85,12.86 -7.1,0 -12.85,-5.76 -12.85,-12.86 0,-7.09 5.75,-12.85 12.85,-12.85z"/>
  <path class="fil2" d="M23.74 13.78l0.48 1.21c0.34,1 0.74,2.38 0.81,3.45l0.04 0.59c0.01,0.09 -0.01,0.16 0.08,0.16l5.31 0c0,-1.53 -0.32,-2.98 -0.87,-4.36 -0.24,-0.58 -0.53,-1.15 -0.83,-1.66 -0.23,-0.39 -0.61,-0.94 -0.91,-1.3 -0.04,-0.06 -0.1,-0.11 -0.13,-0.18 -0.1,0.02 -0.15,0.09 -0.23,0.14 -0.35,0.25 -0.77,0.55 -1.15,0.74 -0.18,0.1 -0.31,0.19 -0.5,0.28l-0.49 0.27c-0.26,0.12 -1.46,0.65 -1.61,0.66l0 0z"/>
  <path class="fil2" d="M6.4 19.19l5.26 0c0.12,0 0.06,-0.22 0.08,-0.36 0.14,-1.81 0.57,-3.23 1.28,-4.86 0.02,-0.07 0.03,-0.1 0.06,-0.16l-1.08 -0.42c-0.09,-0.04 -0.17,-0.08 -0.25,-0.11 -1.03,-0.48 -1.52,-0.74 -2.49,-1.31 -0.09,-0.06 -0.15,-0.1 -0.24,-0.16 -0.22,0.16 -0.94,1.32 -1.04,1.48 -0.64,1.06 -1.17,2.49 -1.41,3.67 -0.06,0.32 -0.14,0.75 -0.17,1.1l-0.06 0.88c0,0.02 0,0.03 -0.01,0.05l0 0.14c0.01,0.04 0.03,0.06 0.07,0.06l0 0z"/>
  <path class="fil2" d="M23.93 25.04l1.01 0.43c0.19,0.08 0.32,0.15 0.48,0.24 0.59,0.29 1.73,0.96 2.22,1.39 0.17,-0.11 0.69,-0.86 0.81,-1.06 0.26,-0.38 0.49,-0.74 0.7,-1.17 0.62,-1.27 0.99,-2.37 1.2,-3.77 0.05,-0.36 0.11,-0.8 0.11,-1.17l-5.36 0 -0.11 1.45c-0.09,0.68 -0.22,1.31 -0.42,1.94 -0.14,0.48 -0.4,1.28 -0.64,1.72z"/>
  <path class="fil2" d="M9.04 26.98c0.03,-0.02 0.01,-0.01 0.05,-0.03 0.02,-0.02 0.04,-0.03 0.06,-0.05 0.84,-0.53 1.29,-0.77 2.19,-1.22l1 -0.44c0.17,-0.07 0.36,-0.14 0.51,-0.2l-0.43 -1.12c-0.13,-0.41 -0.25,-0.78 -0.35,-1.2 -0.2,-0.78 -0.36,-1.82 -0.36,-2.79l-5.35 0c0,0.59 0.14,1.59 0.28,2.14 0.19,0.78 0.28,1.1 0.58,1.85 0.41,1.03 0.75,1.55 1.29,2.37 0.09,0.13 0.44,0.63 0.53,0.69l0 0z"/>
  <path class="fil2" d="M12.55 19.19l5.41 0c0.06,0 0.07,-0.02 0.07,-0.08l0 -4.31c0,-0.11 -0.11,-0.07 -0.22,-0.07l-0.89 -0.06c-0.91,-0.13 -1.73,-0.22 -2.62,-0.48l-0.5 -0.14 -0.46 1.15c-0.33,0.9 -0.74,2.33 -0.81,3.29 -0.01,0.26 -0.11,0.7 0.02,0.7l0 0z"/>
  <path class="fil2" d="M18.86 14.73l-0.08 0 0 4.38c0,0.06 0.02,0.08 0.08,0.08l5.39 0c0.14,0 0.06,-0.18 0.06,-0.3 -0.02,-1.28 -0.73,-3.72 -1.32,-4.84 -0.14,0.01 -0.34,0.09 -0.48,0.13l-1.46 0.33 -1.05 0.14c-0.37,0.03 -0.72,0.08 -1.14,0.08l0 0z"/>
  <path class="fil2" d="M13.58 24.78l1.03 -0.28c0.76,-0.2 2.05,-0.46 2.86,-0.46 0.13,-0.01 0.15,-0.03 0.29,-0.03 0.11,0 0.27,0.05 0.27,-0.08l0 -4 -5.58 0c0,0.12 0.04,0.2 0.04,0.35 -0.01,0.62 0.18,1.73 0.32,2.29 0.08,0.4 0.22,0.78 0.34,1.14 0.06,0.19 0.13,0.37 0.21,0.54l0.22 0.53z"/>
  <path class="fil2" d="M18.78 24.01c1.38,0 2.67,0.27 3.94,0.62 0.18,0.06 0.34,0.11 0.52,0.15l0.2 -0.51c0.07,-0.18 0.14,-0.34 0.21,-0.52 0.26,-0.75 0.45,-1.5 0.57,-2.31 0.08,-0.56 0.11,-0.92 0.11,-1.51l-5.55 0 0 4.08 0 0z"/>
  <path class="fil2" d="M9.52 11.22c0.07,0.02 0.15,0.08 0.22,0.13 0.87,0.51 1.65,0.95 2.59,1.33 0.13,0.05 0.98,0.4 1.05,0.4 0.08,0 0.21,-0.3 0.24,-0.37 0.47,-0.93 1.9,-3.01 2.63,-3.76l0.6 -0.66c0.11,-0.12 0.21,-0.21 0.32,-0.33 0.15,-0.15 0.54,-0.5 0.64,-0.65l0 0c-0.47,0.04 -0.93,0.08 -1.37,0.15 -2.21,0.38 -4.12,1.26 -5.83,2.71 -0.06,0.04 -0.07,0.03 -0.11,0.09 -0.23,0.21 -0.84,0.75 -0.98,0.96l0 0z"/>
  <path class="fil2" d="M23.36 13.08c0.18,0 0.85,-0.3 1.05,-0.38 0.53,-0.24 1.39,-0.68 1.9,-1.01 0.15,-0.1 0.27,-0.18 0.43,-0.27 0.09,-0.07 0.39,-0.26 0.43,-0.33l-1.16 -1.08c-0.78,-0.63 -1.83,-1.32 -2.78,-1.7 -1.55,-0.64 -2.42,-0.85 -4.23,-1l0 0c0.03,0.11 0.07,0.1 0.14,0.15l1.97 2.16c0.59,0.76 0.82,1.08 1.33,1.85l0.7 1.18c0.08,0.13 0.19,0.29 0.22,0.43l0 0z"/>
  <path class="fil2" d="M9.54 27.54c0.04,0.07 0.12,0.14 0.18,0.21 0.05,0.07 0.12,0.13 0.18,0.19l0.8 0.72c0.14,0.12 0.27,0.23 0.43,0.34 0.63,0.48 1.16,0.81 1.88,1.16 0.73,0.38 1.36,0.62 2.18,0.85 0.76,0.21 1.15,0.25 1.91,0.37l0.71 0.05 0 0c-0.08,-0.11 -0.21,-0.19 -0.32,-0.3l-0.65 -0.64c-0.34,-0.3 -0.34,-0.32 -0.66,-0.64 -0.85,-0.85 -1.93,-2.32 -2.51,-3.29 -0.17,-0.27 -0.31,-0.54 -0.47,-0.83 -0.12,0.01 -0.37,0.14 -0.49,0.18 -0.17,0.07 -0.32,0.13 -0.49,0.21 -0.61,0.24 -1.7,0.85 -2.24,1.17 -0.15,0.09 -0.29,0.18 -0.44,0.25l0 0z"/>
  <path class="fil2" d="M19 31.43l0.67 -0.05c1.37,-0.14 2.87,-0.58 4.05,-1.17 0.69,-0.35 2.07,-1.2 2.68,-1.79l0.75 -0.74c-0.14,-0.09 -0.26,-0.2 -0.39,-0.29 -0.62,-0.45 -1.08,-0.67 -1.71,-1.04 -0.17,-0.1 -1.27,-0.62 -1.47,-0.62 -0.08,0.36 -1.12,1.9 -1.47,2.36 -0.18,0.25 -0.81,1.03 -1.01,1.23l-0.79 0.84c-0.21,0.21 -0.42,0.44 -0.64,0.64l-0.34 0.32c-0.07,0.06 -0.1,0.08 -0.18,0.14 -0.11,0.12 -0.12,0.09 -0.15,0.17l0 0 0 0z"/>
  <path class="fil2" d="M13.92 25.46c0.08,0.3 1.14,1.84 1.33,2.11 0.08,0.12 0.16,0.21 0.25,0.33 0.38,0.49 0.89,1.09 1.35,1.53 0.14,0.15 0.34,0.41 0.56,0.59 0.19,0.15 0.49,0.51 0.62,0.54l0 -5.8c-0.5,0 -0.79,0.01 -1.28,0.08 -0.82,0.11 -1.59,0.26 -2.38,0.49 -0.12,0.04 -0.34,0.12 -0.45,0.13l0 0z"/>
  <path class="fil2" d="M18.78 30.59l1.43 -1.42c0.29,-0.32 0.53,-0.58 0.82,-0.93 0.18,-0.23 0.33,-0.42 0.51,-0.65 0.16,-0.22 0.32,-0.44 0.48,-0.69 0.16,-0.23 0.51,-0.77 0.66,-1.06 0.07,-0.13 0.14,-0.25 0.21,-0.38 -0.16,-0.04 -0.32,-0.1 -0.5,-0.16 -0.17,-0.04 -0.35,-0.1 -0.53,-0.14 -0.37,-0.09 -0.72,-0.15 -1.12,-0.22 -0.86,-0.14 -0.99,-0.12 -1.82,-0.18 -0.19,-0.01 -0.14,-0.1 -0.14,0.48 0,1.77 0,3.56 0,5.35l0 0z"/>
  <path class="fil2" d="M14.18 13.34c0.09,0.04 0.29,0.08 0.41,0.12 1.13,0.27 2.22,0.49 3.44,0.49l0 -5.75c-0.18,0.06 -1.4,1.49 -1.61,1.76 -0.85,1.04 -1.6,2.16 -2.24,3.38z"/>
  <path class="fil2" d="M18.78 13.95c1.21,0 2.28,-0.19 3.4,-0.48 0.13,-0.03 0.33,-0.11 0.46,-0.11 -0.05,-0.18 -0.68,-1.21 -0.81,-1.43l-1.67 -2.26c-0.06,-0.05 -0.08,-0.1 -0.13,-0.15l-0.95 -1.03c-0.1,-0.1 -0.16,-0.24 -0.3,-0.29l0 5.75 0 0z"/>
  <polygon class="fil3" points="9.04,26.98 9.04,27 9.07,26.98 "/>
  <g id="_2313398553536">
   <path class="fil0" d="M5.69 6.31l12.7 -6.31 12.72 6.31 -3.18 1.58 0 -0.43c-6.26,-3.35 -12.62,-3.28 -19.08,0.21l0 0.22 -3.16 -1.58z"/>
   <path class="fil0" d="M27.25 11.25c-5.6,-1.44 -11.51,-1.42 -17.71,0.01 0,0 0,-1.03 0,-3.08 5.99,-3.09 11.9,-3.15 17.71,-0.19l0 3.26 0 0z"/>
   <g>
    <polygon class="fil0" points="7.32,12.96 7.68,12.96 7.63,6.24 7.26,6.25 "/>
    <path class="fil0" d="M7.09 11.79l0.81 -0.01c0.2,0 0.37,0.15 0.37,0.36l0.01 2c0,0.2 -0.15,0.37 -0.35,0.37l-0.82 0c-0.2,0 -0.36,-0.16 -0.36,-0.36l-0.03 -2c0,-0.19 0.17,-0.36 0.37,-0.36l0 0z"/>
   </g>
  </g>
  <g id="_2313398555936">
   <path class="fil4" d="M49.2 28.77l-6.29 0 -1.21 4.67 -4.88 0 7.13 -22.84 4.23 0 7.17 22.84 -4.92 0 -1.23 -4.67 0 0zm-5.28 -3.84l4.27 0 -2.14 -8.15 -2.13 8.15zm18.18 4.69l8.1 0 0 3.82 -12.7 0 0 -22.84 4.6 0 0 19.02 0 0zm22.56 -6.06l-7.18 0 0 6.06 8.5 0 0 3.82 -13.12 0 0 -22.84 13.09 0 0 3.84 -8.47 0 0 5.4 7.18 0 0 3.72 0 0zm10 -12.96l4.3 16.53 4.31 -16.53 6.02 0 0 22.84 -4.62 0 0 -6.17 0.42 -9.53 -4.56 15.7 -3.15 0 -4.56 -15.7 0.42 9.53 0 6.17 -4.61 0 0 -22.84 6.03 0 0 0z"/>
   <path class="fil4" d="M119.55 16.6l-3.26 0 0 2.74 3.86 0 0 1.74 -5.94 0 0 -10.34 5.91 0 0 1.74 -3.83 0 0 2.43 3.26 0 0 1.69zm1.79 4.48l0 -10.34 2.74 0c0.59,0 1.13,0.1 1.62,0.3 0.49,0.19 0.91,0.47 1.26,0.85 0.34,0.36 0.62,0.83 0.8,1.37 0.19,0.54 0.29,1.16 0.29,1.85l0 1.6c0,0.7 -0.1,1.32 -0.29,1.86 -0.18,0.53 -0.45,0.99 -0.8,1.36 -0.35,0.37 -0.77,0.66 -1.26,0.85 -0.5,0.2 -1.05,0.29 -1.65,0.29l-2.71 0 0 0.01zm2.09 -8.6l0 6.86 0.62 0c0.37,0 0.68,-0.05 0.92,-0.14 0.24,-0.1 0.44,-0.26 0.59,-0.48 0.15,-0.21 0.25,-0.47 0.32,-0.8 0.05,-0.33 0.08,-0.74 0.08,-1.21l0 -1.62c0,-0.46 -0.03,-0.87 -0.08,-1.2 -0.07,-0.33 -0.17,-0.6 -0.32,-0.81 -0.15,-0.21 -0.33,-0.36 -0.59,-0.46 -0.24,-0.09 -0.54,-0.14 -0.89,-0.14l-0.65 0 0 0zm12.83 -1.74l0 7.1c0,0.6 -0.07,1.1 -0.25,1.54 -0.16,0.43 -0.4,0.77 -0.69,1.04 -0.3,0.27 -0.67,0.48 -1.09,0.6 -0.4,0.13 -0.86,0.19 -1.35,0.19 -0.5,0 -0.96,-0.06 -1.38,-0.19 -0.42,-0.12 -0.78,-0.33 -1.09,-0.6 -0.29,-0.27 -0.53,-0.61 -0.69,-1.04 -0.18,-0.44 -0.26,-0.94 -0.26,-1.54l0 -7.1 2.1 0 0 7.1c0,0.33 0.04,0.61 0.09,0.83 0.06,0.21 0.14,0.37 0.25,0.5 0.11,0.12 0.25,0.19 0.41,0.25 0.17,0.03 0.36,0.07 0.57,0.07 0.21,0 0.39,-0.04 0.56,-0.07 0.16,-0.06 0.3,-0.13 0.41,-0.25 0.11,-0.13 0.18,-0.29 0.25,-0.5 0.06,-0.22 0.08,-0.5 0.08,-0.83l0 -7.1 2.08 0 0 0zm8.59 6.89c-0.05,1.17 -0.38,2.07 -0.99,2.67 -0.61,0.61 -1.47,0.91 -2.58,0.91 -0.58,0 -1.08,-0.09 -1.54,-0.28 -0.45,-0.2 -0.83,-0.47 -1.13,-0.85 -0.31,-0.37 -0.55,-0.83 -0.71,-1.38 -0.16,-0.55 -0.24,-1.19 -0.24,-1.91l0 -1.75c0,-0.72 0.08,-1.36 0.25,-1.91 0.17,-0.56 0.41,-1.02 0.73,-1.39 0.32,-0.38 0.69,-0.66 1.15,-0.85 0.45,-0.19 0.95,-0.29 1.52,-0.29 1.12,0 1.98,0.32 2.56,0.94 0.59,0.63 0.92,1.53 1,2.71l-2.09 0c-0.01,-0.36 -0.05,-0.67 -0.1,-0.92 -0.06,-0.25 -0.14,-0.45 -0.25,-0.59 -0.12,-0.15 -0.27,-0.25 -0.45,-0.32 -0.18,-0.06 -0.4,-0.09 -0.67,-0.09 -0.29,0 -0.52,0.05 -0.72,0.15 -0.2,0.08 -0.35,0.24 -0.48,0.45 -0.12,0.21 -0.21,0.48 -0.27,0.83 -0.06,0.34 -0.09,0.76 -0.09,1.25l0 1.78c0,0.49 0.03,0.9 0.07,1.24 0.06,0.34 0.13,0.62 0.25,0.83 0.11,0.22 0.28,0.37 0.47,0.47 0.2,0.1 0.44,0.16 0.74,0.16 0.25,0 0.47,-0.04 0.65,-0.09 0.19,-0.06 0.33,-0.15 0.45,-0.29 0.12,-0.13 0.21,-0.32 0.28,-0.56 0.05,-0.25 0.1,-0.55 0.11,-0.92l2.08 0 0 0zm6.22 1.33l-2.85 0 -0.55 2.12 -2.21 0 3.22 -10.34 1.91 0 3.26 10.34 -2.23 0 -0.55 -2.12zm-2.4 -1.74l1.94 0 -0.96 -3.69 -0.98 3.69zm11.98 -4.74l-2.56 0 0 8.6 -2.09 0 0 -8.6 -2.51 0 0 -1.74 7.16 0 0 1.74 0 0zm3.38 8.6l-2.09 0 0 -10.34 2.09 0 0 10.34zm9.02 -4.24c0,0.71 -0.09,1.35 -0.27,1.91 -0.18,0.55 -0.43,1 -0.76,1.36 -0.32,0.37 -0.71,0.64 -1.17,0.82 -0.45,0.19 -0.96,0.28 -1.51,0.28 -0.55,0 -1.06,-0.09 -1.51,-0.28 -0.47,-0.18 -0.86,-0.45 -1.18,-0.82 -0.33,-0.36 -0.59,-0.81 -0.78,-1.36 -0.17,-0.56 -0.27,-1.2 -0.27,-1.91l0 -1.73c0,-0.74 0.1,-1.39 0.27,-1.95 0.18,-0.56 0.43,-1.04 0.75,-1.42 0.34,-0.38 0.73,-0.66 1.19,-0.85 0.46,-0.19 0.97,-0.29 1.52,-0.29 0.55,0 1.06,0.1 1.51,0.29 0.45,0.19 0.85,0.47 1.17,0.85 0.33,0.38 0.59,0.86 0.77,1.42 0.18,0.56 0.27,1.21 0.27,1.95l0 1.73zm-2.1 -1.74c0,-0.48 -0.03,-0.9 -0.1,-1.26 -0.07,-0.34 -0.17,-0.63 -0.31,-0.85 -0.14,-0.23 -0.31,-0.38 -0.51,-0.49 -0.2,-0.1 -0.44,-0.16 -0.7,-0.16 -0.28,0 -0.51,0.06 -0.71,0.16 -0.21,0.11 -0.37,0.26 -0.52,0.49 -0.13,0.22 -0.24,0.51 -0.3,0.85 -0.07,0.36 -0.12,0.78 -0.12,1.26l0 1.74c0,0.46 0.05,0.87 0.12,1.2 0.06,0.33 0.17,0.61 0.3,0.82 0.15,0.21 0.32,0.36 0.52,0.46 0.21,0.1 0.46,0.15 0.72,0.15 0.27,0 0.5,-0.05 0.7,-0.15 0.19,-0.1 0.37,-0.25 0.5,-0.46 0.15,-0.21 0.25,-0.49 0.31,-0.82 0.07,-0.33 0.1,-0.74 0.1,-1.2l0 -1.74zm10.82 5.98l-2.09 0 -3.04 -6.78 0 6.78 -2.09 0 0 -10.34 2.09 0 3.06 6.78 0 -6.78 2.07 0 0 10.34 0 0zm6.74 -2.12l-2.85 0 -0.55 2.12 -2.21 0 3.22 -10.34 1.91 0 3.26 10.34 -2.23 0 -0.55 -2.12zm-2.4 -1.74l1.93 0 -0.96 -3.69 -0.97 3.69zm8.22 2.12l3.67 0 0 1.74 -5.75 0 0 -10.34 2.08 0 0 8.6zm-75.75 11.17c0,-0.17 -0.02,-0.34 -0.06,-0.48 -0.03,-0.15 -0.1,-0.28 -0.21,-0.4 -0.1,-0.13 -0.25,-0.25 -0.45,-0.36 -0.2,-0.12 -0.45,-0.25 -0.78,-0.38 -0.39,-0.15 -0.76,-0.32 -1.12,-0.51 -0.35,-0.18 -0.66,-0.41 -0.92,-0.67 -0.27,-0.25 -0.48,-0.55 -0.64,-0.89 -0.16,-0.34 -0.24,-0.73 -0.24,-1.19 0,-0.43 0.08,-0.81 0.25,-1.18 0.15,-0.35 0.38,-0.66 0.67,-0.9 0.29,-0.26 0.64,-0.45 1.04,-0.59 0.39,-0.14 0.84,-0.21 1.32,-0.21 0.5,0 0.94,0.08 1.35,0.24 0.4,0.16 0.74,0.38 1.01,0.66 0.29,0.28 0.5,0.62 0.66,1 0.14,0.4 0.23,0.83 0.23,1.29l-2.09 0c0,-0.22 -0.02,-0.42 -0.07,-0.59 -0.04,-0.19 -0.11,-0.34 -0.2,-0.48 -0.1,-0.12 -0.23,-0.23 -0.38,-0.3 -0.15,-0.07 -0.33,-0.11 -0.54,-0.11 -0.2,0 -0.38,0.04 -0.52,0.09 -0.14,0.07 -0.26,0.15 -0.35,0.26 -0.1,0.11 -0.18,0.23 -0.22,0.37 -0.05,0.15 -0.07,0.31 -0.07,0.48 0,0.16 0.03,0.32 0.11,0.45 0.07,0.14 0.18,0.26 0.31,0.39 0.13,0.12 0.3,0.23 0.49,0.33 0.19,0.11 0.4,0.21 0.64,0.31 0.48,0.17 0.9,0.36 1.25,0.58 0.37,0.21 0.67,0.45 0.91,0.72 0.24,0.27 0.42,0.57 0.54,0.92 0.11,0.33 0.18,0.71 0.18,1.14 0,0.46 -0.08,0.85 -0.24,1.21 -0.14,0.35 -0.35,0.66 -0.62,0.9 -0.28,0.24 -0.62,0.43 -1.01,0.55 -0.4,0.14 -0.84,0.2 -1.32,0.2 -0.46,0 -0.89,-0.06 -1.32,-0.2 -0.43,-0.13 -0.8,-0.34 -1.15,-0.61 -0.33,-0.29 -0.6,-0.64 -0.8,-1.06 -0.21,-0.43 -0.31,-0.94 -0.31,-1.53l2.09 0c0,0.32 0.03,0.59 0.1,0.8 0.05,0.22 0.15,0.39 0.27,0.53 0.12,0.13 0.29,0.23 0.46,0.3 0.19,0.05 0.4,0.07 0.66,0.07 0.19,0 0.36,-0.02 0.5,-0.07 0.14,-0.07 0.25,-0.15 0.34,-0.25 0.08,-0.11 0.15,-0.23 0.18,-0.36 0.05,-0.15 0.07,-0.3 0.07,-0.47zm6.59 -2.98l1.56 -4.63 2.27 0 -2.77 6.58 0 3.74 -2.12 0 0 -3.74 -2.77 -6.58 2.27 0 1.56 4.63zm9.02 2.98c0,-0.17 -0.02,-0.34 -0.06,-0.48 -0.03,-0.15 -0.09,-0.28 -0.19,-0.4 -0.11,-0.13 -0.27,-0.25 -0.47,-0.36 -0.19,-0.12 -0.45,-0.25 -0.78,-0.38 -0.39,-0.15 -0.75,-0.32 -1.11,-0.51 -0.35,-0.18 -0.66,-0.41 -0.92,-0.67 -0.28,-0.25 -0.49,-0.55 -0.64,-0.89 -0.17,-0.34 -0.25,-0.73 -0.25,-1.19 0,-0.43 0.09,-0.81 0.25,-1.18 0.16,-0.35 0.38,-0.66 0.67,-0.9 0.3,-0.26 0.64,-0.45 1.04,-0.59 0.39,-0.14 0.84,-0.21 1.32,-0.21 0.5,0 0.95,0.08 1.35,0.24 0.4,0.16 0.74,0.38 1.01,0.66 0.29,0.28 0.5,0.62 0.66,1 0.15,0.4 0.23,0.83 0.23,1.29l-2.09 0c0,-0.22 -0.02,-0.42 -0.06,-0.59 -0.05,-0.19 -0.12,-0.34 -0.21,-0.48 -0.1,-0.12 -0.23,-0.23 -0.38,-0.3 -0.14,-0.07 -0.33,-0.11 -0.54,-0.11 -0.2,0 -0.38,0.04 -0.52,0.09 -0.14,0.07 -0.26,0.15 -0.35,0.26 -0.1,0.11 -0.17,0.23 -0.21,0.37 -0.06,0.15 -0.08,0.31 -0.08,0.48 0,0.16 0.03,0.32 0.11,0.45 0.08,0.14 0.18,0.26 0.31,0.39 0.14,0.12 0.3,0.23 0.5,0.33 0.18,0.11 0.39,0.21 0.63,0.31 0.48,0.17 0.9,0.36 1.27,0.58 0.35,0.21 0.65,0.45 0.89,0.72 0.24,0.27 0.42,0.57 0.54,0.92 0.12,0.33 0.18,0.71 0.18,1.14 0,0.46 -0.08,0.85 -0.22,1.21 -0.16,0.35 -0.37,0.66 -0.64,0.9 -0.28,0.24 -0.61,0.43 -1.01,0.55 -0.39,0.14 -0.83,0.2 -1.32,0.2 -0.44,0 -0.89,-0.06 -1.32,-0.2 -0.42,-0.13 -0.8,-0.34 -1.13,-0.61 -0.35,-0.29 -0.61,-0.64 -0.82,-1.06 -0.21,-0.43 -0.31,-0.94 -0.31,-1.53l2.1 0c0,0.32 0.02,0.59 0.09,0.8 0.06,0.22 0.15,0.39 0.27,0.53 0.13,0.13 0.29,0.23 0.47,0.3 0.18,0.05 0.4,0.07 0.65,0.07 0.2,0 0.36,-0.02 0.5,-0.07 0.14,-0.07 0.26,-0.15 0.35,-0.25 0.09,-0.11 0.14,-0.23 0.18,-0.36 0.04,-0.15 0.06,-0.3 0.06,-0.47l0 0zm10.17 -5.88l-2.55 0 0 8.59 -2.09 0 0 -8.59 -2.52 0 0 -1.73 7.16 0 0 1.73zm6.53 4.12l-3.24 0 0 2.74 3.84 0 0 1.73 -5.93 0 0 -10.32 5.92 0 0 1.73 -3.83 0 0 2.44 3.24 0 0 1.68 0 0zm4.52 -5.85l1.95 7.46 1.95 -7.46 2.72 0 0 10.32 -2.1 0 0 -2.79 0.2 -4.31 -2.06 7.1 -1.43 0 -2.06 -7.1 0.2 4.31 0 2.79 -2.09 0 0 -10.32 2.72 0zm12.66 7.61c0,-0.17 -0.02,-0.34 -0.05,-0.48 -0.04,-0.15 -0.1,-0.28 -0.21,-0.4 -0.1,-0.13 -0.26,-0.25 -0.46,-0.36 -0.2,-0.12 -0.45,-0.25 -0.78,-0.38 -0.39,-0.15 -0.75,-0.32 -1.1,-0.51 -0.36,-0.18 -0.67,-0.41 -0.93,-0.67 -0.28,-0.25 -0.49,-0.55 -0.64,-0.89 -0.17,-0.34 -0.25,-0.73 -0.25,-1.19 0,-0.43 0.09,-0.81 0.25,-1.18 0.16,-0.35 0.38,-0.66 0.67,-0.9 0.3,-0.26 0.64,-0.45 1.04,-0.59 0.4,-0.14 0.84,-0.21 1.32,-0.21 0.5,0 0.95,0.08 1.35,0.24 0.4,0.16 0.74,0.38 1.02,0.66 0.28,0.28 0.49,0.62 0.65,1 0.15,0.4 0.23,0.83 0.23,1.29l-2.09 0c0,-0.22 -0.02,-0.42 -0.06,-0.59 -0.05,-0.19 -0.11,-0.34 -0.21,-0.48 -0.1,-0.12 -0.22,-0.23 -0.38,-0.3 -0.14,-0.07 -0.33,-0.11 -0.54,-0.11 -0.2,0 -0.37,0.04 -0.52,0.09 -0.14,0.07 -0.26,0.15 -0.35,0.26 -0.1,0.11 -0.17,0.23 -0.21,0.37 -0.06,0.15 -0.08,0.31 -0.08,0.48 0,0.16 0.03,0.32 0.11,0.45 0.08,0.14 0.18,0.26 0.31,0.39 0.14,0.12 0.3,0.23 0.5,0.33 0.19,0.11 0.4,0.21 0.63,0.31 0.48,0.17 0.9,0.36 1.27,0.58 0.35,0.21 0.65,0.45 0.89,0.72 0.24,0.27 0.42,0.57 0.54,0.92 0.12,0.33 0.18,0.71 0.18,1.14 0,0.46 -0.08,0.85 -0.22,1.21 -0.16,0.35 -0.37,0.66 -0.64,0.9 -0.28,0.24 -0.61,0.43 -1.01,0.55 -0.39,0.14 -0.83,0.2 -1.32,0.2 -0.44,0 -0.89,-0.06 -1.32,-0.2 -0.42,-0.13 -0.8,-0.34 -1.13,-0.61 -0.35,-0.29 -0.61,-0.64 -0.82,-1.06 -0.21,-0.43 -0.31,-0.94 -0.31,-1.53l2.1 0c0,0.32 0.02,0.59 0.09,0.8 0.06,0.22 0.15,0.39 0.27,0.53 0.14,0.13 0.29,0.23 0.47,0.3 0.18,0.05 0.41,0.07 0.65,0.07 0.2,0 0.36,-0.02 0.51,-0.07 0.13,-0.07 0.25,-0.15 0.34,-0.25 0.09,-0.11 0.14,-0.23 0.19,-0.36 0.03,-0.15 0.05,-0.3 0.05,-0.47l0 0z"/>
  </g>
 </g>
</svg>
