<svg width="127" height="127" viewBox="0 0 127 127" fill="none" xmlns="http://www.w3.org/2000/svg">
<path fill-rule="evenodd" clip-rule="evenodd" d="M63.7253 0.740723C98.4993 0.740723 126.689 28.9362 126.689 63.7172C126.689 98.498 98.4993 126.694 63.7253 126.694C28.9514 126.694 0.761719 98.498 0.761719 63.7172C0.761719 28.9362 28.9514 0.740723 63.7253 0.740723ZM20.8311 82.9879L19.4623 77.862L18.8434 78.0275C19.1358 79.551 18.978 80.0738 18.195 80.3971C17.5615 80.6807 16.6817 80.9846 14.8026 81.4863L13.0944 81.9429C9.54986 82.8895 6.83174 82.5632 6.03915 79.5945C5.34906 77.0102 6.93869 75.167 10.3553 74.2542L15.1597 72.9709C17.1028 72.4518 17.2767 72.5884 17.8282 74.2258L18.4474 74.0603L16.9247 68.3581L16.3055 68.5234C16.6009 70.2292 16.5454 70.4498 14.6235 70.9634L9.34931 72.3723C6.851 73.0395 5.40933 74.0655 4.76345 75.5878C4.29417 76.7429 4.32579 78.0614 4.66811 79.343C5.04453 80.7526 5.90206 82.0795 7.18938 82.788C8.79555 83.663 10.7347 83.557 13.1903 82.9011L15.0479 82.4048C16.927 81.9028 17.8408 81.7275 18.4561 81.6319C19.3329 81.4891 19.7901 81.9159 20.2119 83.1534L20.8311 82.9879ZM112.692 41.1985C113.527 43.0123 114.263 44.8809 114.894 46.7974C114.906 46.6858 114.921 46.5736 114.939 46.4615C115.307 44.1749 116.832 42.3628 118.82 41.5264C118.931 42.1988 118.937 42.9004 118.823 43.6104C118.482 45.7275 117.15 47.4375 115.377 48.3434C115.896 50.1013 116.328 51.8968 116.667 53.7252C116.706 53.4258 116.766 53.1256 116.849 52.8262C117.467 50.5939 119.182 48.9613 121.25 48.3489C121.286 49.0295 121.215 49.7276 121.024 50.4205C120.43 52.5673 118.82 54.1595 116.858 54.823C117.193 56.8687 117.411 58.9538 117.506 61.0709C117.562 60.8634 117.629 60.6566 117.707 60.4513C118.531 58.2868 120.391 56.8213 122.507 56.4048C122.48 57.0859 122.344 57.7741 122.088 58.4463C121.299 60.5212 119.557 61.9533 117.55 62.4356C117.558 62.7896 117.561 63.1443 117.561 63.5001C117.561 64.4744 117.533 65.4423 117.482 66.4038C117.136 66.3788 116.79 66.3583 116.444 66.3381C116.494 65.3983 116.521 64.4524 116.521 63.5001C116.521 63.1651 116.517 62.8308 116.511 62.4973C115.897 62.4726 115.277 62.3595 114.666 62.1492C112.476 61.396 110.952 59.5837 110.467 57.4819C111.149 57.4871 111.841 57.601 112.521 57.8347C114.438 58.4943 115.846 59.9659 116.491 61.733C116.415 59.4503 116.193 57.205 115.834 55.0056C115.246 55.0866 114.638 55.0874 114.021 54.9982C111.73 54.6657 109.894 53.1691 109.027 51.194C109.698 51.0722 110.399 51.0552 111.111 51.1584C113.086 51.4447 114.722 52.5967 115.691 54.174C115.347 52.2582 114.897 50.3785 114.35 48.5413C113.787 48.6917 113.194 48.7683 112.582 48.7592C110.267 48.7253 108.254 47.478 107.139 45.6314C107.789 45.4242 108.482 45.3167 109.201 45.3273C111.167 45.356 112.915 46.2601 114.08 47.663C113.422 45.5867 112.637 43.5664 111.736 41.6108C112.057 41.4772 112.375 41.3393 112.692 41.1985ZM16.556 41.7573C15.7073 43.6138 14.9639 45.5284 14.3333 47.4938C15.4961 46.1877 17.1814 45.3547 19.0674 45.3273C19.7864 45.3167 20.4794 45.4242 21.1287 45.6314C20.0138 47.478 18.0011 48.7253 15.6858 48.7592C15.1047 48.7678 14.5408 48.6992 14.0031 48.5633C13.478 50.3294 13.0435 52.1345 12.7052 53.9732C13.6874 52.4994 15.2672 51.4324 17.1576 51.1584C17.8695 51.0552 18.5704 51.0722 19.241 51.194C18.3738 53.1691 16.5387 54.6657 14.2471 54.9982C13.662 55.0829 13.084 55.0866 12.5241 55.0175C12.1798 57.1292 11.9622 59.2836 11.8787 61.4723C12.5634 59.8219 13.9248 58.4617 15.7471 57.8349C16.4273 57.6007 17.1194 57.4871 17.8008 57.4819C17.3162 59.5837 15.7918 61.396 13.6022 62.1492C13.022 62.3489 12.433 62.461 11.8493 62.4929C11.8432 62.8279 11.8397 63.1636 11.8397 63.5001C11.8397 64.4114 11.8634 65.3173 11.9094 66.217C11.5638 66.2598 11.2198 66.307 10.8757 66.3544C10.8261 65.4092 10.7996 64.4578 10.7996 63.5001C10.7996 63.1515 10.8028 62.8039 10.8098 62.4568C8.76443 61.9971 6.98117 60.5529 6.17994 58.4463C5.9243 57.7741 5.78821 57.0859 5.76104 56.4048C7.877 56.8213 9.73732 58.2868 10.5608 60.4513C10.6796 60.7633 10.7725 61.0786 10.8406 61.3953C10.9266 59.1766 11.1481 56.9928 11.4971 54.8517C9.49577 54.2066 7.84761 52.5992 7.24471 50.4205C7.0528 49.7276 6.98166 49.0295 7.01822 48.3489C9.08626 48.9613 10.8014 50.5939 11.4191 52.8262C11.5315 53.2326 11.6026 53.6409 11.6347 54.0463C11.979 52.1211 12.4266 50.2316 12.9712 48.3837C11.1583 47.4887 9.79068 45.7591 9.44489 43.6104C9.33078 42.9004 9.33696 42.1988 9.4481 41.5264C11.4361 42.3628 12.961 44.1749 13.3288 46.4615C13.3587 46.6475 13.3804 46.8328 13.394 47.0173C14.0271 45.0657 14.769 43.163 15.6132 41.3171C15.9257 41.4673 16.2398 41.614 16.556 41.7573ZM18.0396 28.7929C16.8346 28.2563 15.9508 27.8737 15.2082 27.4762C14.7611 27.8457 13.8788 28.5669 13.2468 29.5531C11.6006 32.1213 12.2569 34.5378 14.192 35.7787C15.9783 36.924 17.891 36.2338 19.9133 35.1673C21.5113 34.3538 22.6902 34.1119 23.7508 34.792C24.8672 35.5077 25.2004 36.6668 24.5325 37.709C23.4591 39.384 20.9275 39.0737 19.5539 38.7182L19.3531 39.4821C20.5157 40.0439 22.0424 40.7338 22.6455 40.8581C22.9545 40.6624 23.2877 40.4295 23.7584 40.0224C24.1988 39.6221 24.6498 39.1234 25.0554 38.4907C26.7134 35.9039 26.1629 33.2401 24.1349 31.9397C22.2928 30.7586 20.4584 31.3678 18.3459 32.5341C16.6274 33.4541 15.6142 33.7236 14.5536 33.0435C13.4745 32.3515 13.2261 31.1417 13.7867 30.2672C14.6932 28.8526 16.3416 29.1481 17.7457 29.4969L18.0396 28.7929ZM33.2431 23.5816C33.6277 24.4976 33.8131 25.237 33.8462 25.8163C33.8917 26.5364 33.5346 27.091 32.6866 27.8993C32.1109 28.4485 31.6485 28.8285 31.2865 28.9293C30.8932 29.0293 30.4778 28.7536 29.761 28.0016L27.0004 25.1058L27.9123 24.2362C29.192 23.0159 29.3809 22.9578 30.7038 23.8649L31.2477 23.3464L28.2584 20.2104L27.7145 20.7292C28.5421 22.0778 28.4592 22.2792 27.1953 23.4843L26.2837 24.3538L23.0809 20.9938C22.5776 20.4659 22.5959 20.357 23.0916 19.8841L23.6676 19.3349C24.6434 18.4043 25.1964 18.1516 25.6951 18.2263C26.194 18.2692 26.7658 18.5486 27.4749 18.9721L27.9578 18.3895C27.0244 17.5385 25.8922 16.5111 25.617 16.2541L18.7226 22.8288L19.2259 23.3568C20.325 22.4919 20.5454 22.4346 21.7959 23.7463L27.7288 29.9703C28.9793 31.2821 28.9116 31.4995 27.8345 32.7404L28.3379 33.2683L35.7762 26.175C35.4618 25.5888 34.4077 23.9064 33.9087 23.191L33.2431 23.5816ZM42.772 22.1808L42.4084 21.5484C41.0586 22.1719 40.8143 22.0573 39.9439 20.5435L35.7135 13.1844C34.7991 11.5937 34.8261 11.3743 36.063 10.5099L35.6994 9.8775L30.4111 12.9188L30.7747 13.5513C32.1245 12.928 32.3468 13.0041 33.2611 14.5948L37.4916 21.9538C38.3728 23.4869 38.3187 23.7476 37.1201 24.5898L37.4837 25.2222L42.772 22.1808ZM50.1698 7.66253C49.6613 6.50416 49.0747 5.0459 48.9405 4.71783L39.7915 7.81423L40.0183 8.48418C41.4007 8.15661 41.6457 8.26038 42.2407 10.0191L44.9326 17.9762C45.5348 19.7561 45.4032 19.9876 44.1057 20.5667L44.3394 21.2577L50.2851 19.2455L50.0515 18.5543C48.4179 18.9674 48.2075 18.8282 47.6053 17.0486L46.4222 13.5515L48.0343 13.006C49.6882 12.4462 49.9263 12.529 50.6662 13.889L51.3571 13.655L49.9828 9.59268L49.292 9.82659C49.494 11.2518 49.3552 11.462 47.7014 12.0218L46.0893 12.5673L44.5308 7.96047C44.3043 7.2905 44.3875 7.19217 45.0366 6.97256L45.9579 6.66081C47.0674 6.28531 47.6752 6.21957 48.2077 6.55283C48.6844 6.85817 49.05 7.31794 49.5145 8.00101L50.1698 7.66253ZM68.5108 3.02261L63.4732 3.14985L63.4917 3.8791C64.9516 3.9085 65.3814 4.29589 65.5103 5.02219C65.5928 5.66153 65.703 6.52121 65.7465 8.24481L65.8117 10.8303C65.9023 14.4104 64.8842 16.1168 62.6969 16.1721C60.5757 16.2257 59.5413 14.6597 59.4625 11.5438L59.3274 6.19587C59.2795 4.29515 59.4297 4.11453 60.8183 3.94679L60.7998 3.21754L54.8122 3.36871L54.8305 4.09825C56.2922 4.19386 56.4513 4.36675 56.4994 6.26724L56.6367 11.7036C56.7009 14.2449 57.2023 15.7138 58.3311 16.6363C59.3022 17.452 60.6133 17.7065 61.9389 17.6729C63.3751 17.6366 64.7303 17.0273 65.6106 15.9878C66.6828 14.6782 66.9221 12.7704 66.8668 10.5826L66.807 8.21789C66.7623 6.45007 66.8317 5.69637 66.9024 4.98711C66.9715 4.23339 67.4035 3.82454 68.5293 3.75191L68.5108 3.02261ZM80.1956 16.1598C79.6275 17.0496 79.1022 17.6543 78.6583 18.0054C78.0601 18.4345 77.3362 18.4264 76.4965 18.2324C75.8933 18.0933 75.3815 17.9525 75.0718 17.722C74.7287 17.4389 74.7421 16.988 74.9757 15.9757L76.9042 7.61833C77.3216 5.80876 77.5074 5.6929 79.0014 5.90165L79.1654 5.19092L73.1786 3.80894L73.0146 4.51972C74.4277 4.98193 74.5652 5.17264 74.1476 6.98196L72.2341 15.2748C71.8365 16.998 71.6243 17.1306 69.9579 16.8818L69.7939 17.5928L79.3771 19.805C79.6522 19.3013 80.5169 17.3228 80.8615 16.5177L80.1956 16.1598ZM91.2254 21.6608C90.4575 22.3852 89.8006 22.8434 89.2843 23.0756C88.5997 23.3459 87.8997 23.1611 87.1326 22.7681C86.5818 22.486 86.1197 22.2243 85.8754 21.9254C85.6121 21.5669 85.7349 21.1331 86.2083 20.2085L90.1174 12.5742C90.9639 10.9215 91.1721 10.8543 92.57 11.4215L92.9025 10.7721L87.4339 7.97085L87.1015 8.62005C88.3589 9.4133 88.4458 9.63172 87.5994 11.2844L83.7206 18.8596C82.9147 20.4335 82.6766 20.5103 81.1211 19.8626L80.7886 20.5119L89.5424 24.9961C89.9322 24.5747 91.2536 22.8674 91.7841 22.1705L91.2254 21.6608ZM95.4984 30.1887L95.976 29.6372C94.9436 28.5671 94.9713 28.2988 96.1143 26.9789L101.671 20.5625C102.872 19.1756 103.088 19.1289 104.311 20.0128L104.789 19.4615L100.178 15.4665L99.7004 16.0179C100.733 17.0879 100.734 17.323 99.5329 18.7099L93.9762 25.1261C92.8185 26.4628 92.5545 26.4974 91.3652 25.6424L90.8878 26.1938L95.4984 30.1887ZM116.473 33.9123L113.592 29.8586L113.015 30.2687C113.781 31.4602 113.754 31.9945 113.17 32.5459C112.68 33.0022 111.826 33.7455 110.277 34.8473L107.125 37.0892L107.074 37.0171L110.607 25.6612L108.417 22.5803L107.84 22.9902C108.312 23.7674 108.352 24.2814 108.137 24.8951C107.946 25.4653 107.622 25.6958 106.433 26.5414L102.668 29.2188C101.155 30.2949 100.173 30.8581 99.5631 31.1832C98.8273 31.598 98.2777 31.4735 97.5449 30.557L96.9684 30.9671L99.8889 35.0746L100.465 34.6648C99.6354 33.3832 99.7547 32.8644 100.375 32.2873C100.877 31.849 101.732 31.1057 103.245 30.0296L107.189 27.2239L107.228 27.278L103.039 39.8867L103.679 40.7877L110.866 35.6762C112.415 34.5744 113.398 34.0111 114.007 33.686C114.707 33.2969 115.208 33.4291 115.897 34.3221L116.473 33.9123ZM30.26 96.8201L27.2919 92.5031L26.7638 92.8665C27.5675 94.1916 27.6189 94.7734 26.8621 95.428C26.3716 95.846 25.6022 96.4827 23.9269 97.6348L19.6836 100.554L19.6461 100.499L23.422 86.8748L21.4933 84.0699L20.9652 84.4331C21.4683 85.3212 21.5983 85.8219 21.3935 86.4995C21.2001 87.1154 21.0796 87.252 19.7866 88.1414L15.8165 90.8721C14.1592 92.0122 13.2352 92.5407 12.633 92.8742C11.6965 93.3843 11.1464 93.0918 10.3597 92.1037L9.83167 92.467L12.825 96.8204L13.353 96.457C12.5493 95.1318 12.5105 94.5683 13.3582 93.8509C13.8487 93.4329 14.6853 92.7771 16.3426 91.6372L20.8225 88.5556L20.8474 88.5922L16.6879 102.829L17.1137 103.448L24.4527 98.3999C26.1281 97.2475 26.9851 96.7386 27.5873 96.4049C28.4513 95.9449 28.9759 96.2008 29.7321 97.1833L30.26 96.8201ZM28.2151 112.961L28.619 112.463C27.3126 111.232 27.2588 111.018 28.4426 109.559L33.9858 102.727C35.1696 101.268 35.3904 101.277 36.8642 102.302L37.268 101.804L32.6002 98.0151L32.1964 98.5129C33.5029 99.7444 33.5565 99.9588 32.3727 101.418L26.8295 108.249C25.6457 109.708 25.4249 109.7 23.9513 108.674L23.5473 109.172L28.2151 112.961ZM52.7257 109.113L48.0879 107.2L47.8434 107.792C49.4143 108.679 49.4404 108.905 48.5261 109.963C47.0753 111.684 44.1395 114.801 41.99 116.999L41.949 116.982C42.0142 113.23 42.1459 108.621 42.2301 106.91C42.2654 105.897 42.4027 105.738 43.9207 106.173L44.1652 105.581L38.9755 103.439L38.7312 104.032C39.9064 104.66 40.1576 104.979 40.1178 106.756C40.0783 110.04 39.9318 115.265 39.7582 119.569L40.4732 119.864C43.7708 116.275 47.9741 112.055 49.1194 110.901C50.6625 109.362 51.0246 109.296 52.4814 109.706L52.7257 109.113ZM64.5449 120.812C64.1336 121.662 63.6468 122.372 63.2301 122.8C62.6954 123.306 62.0191 123.421 60.4345 123.275C59.4001 123.181 58.6297 123.11 58.2357 122.807C57.8638 122.507 57.7763 122.01 57.8734 120.953L58.2474 116.881L60.2282 117.063C62.1429 117.239 62.3069 117.387 62.4494 118.976L63.1096 119.037L63.4998 114.788L62.8396 114.728C62.418 116.176 62.2698 116.341 60.311 116.16L58.3301 115.979L58.785 111.025C58.8458 110.365 58.8957 110.303 59.6001 110.368L61.1846 110.513C62.7033 110.653 63.2835 110.862 63.549 111.352C63.8148 111.843 64.0084 112.393 64.1235 113.314L64.7938 113.265C64.8351 112.092 64.8645 110.563 64.8889 110.055L54.9849 109.145L54.9263 109.783C56.6068 110.093 56.7768 110.175 56.595 112.156L55.7965 120.852C55.6285 122.679 55.4383 122.817 53.4434 122.789L53.3849 123.427L64.103 124.412C64.3638 123.748 64.9922 121.741 65.1949 120.982L64.5449 120.812ZM84.2154 120.575C83.7076 120.526 83.1812 120.39 82.4897 119.905C81.8507 119.455 81.2979 118.985 80.27 117.985C79.4131 117.151 78.2167 115.893 77.7059 115.301C79.1353 114.272 80.0615 112.897 79.6584 111.017C79.3805 109.72 78.5887 108.872 77.6037 108.496C76.6669 108.131 75.5663 108.164 73.9238 108.516L68.4562 109.688L68.5905 110.315C70.2824 110.088 70.4785 110.159 70.8676 111.974L72.7155 120.599C73.109 122.436 72.947 122.629 71.2459 123.129L71.3801 123.756L77.1937 122.51L77.0593 121.883C75.3242 122.12 75.0972 122.01 74.7035 120.173L73.9764 116.779L74.6033 116.645C75.6621 116.418 76.0635 116.603 76.5866 117.146C77.4404 118.071 78.4578 119.232 79.4149 120.112C80.6622 121.292 81.6546 121.599 83.5147 121.313C83.757 121.284 84.0165 121.228 84.2542 121.178L84.2154 120.575ZM73.8238 116.066L72.6795 110.727C72.5594 110.165 72.573 109.913 72.6965 109.751C72.8417 109.584 73.1905 109.419 73.7956 109.289C75.3517 108.956 77.0282 109.501 77.5284 111.835C77.7783 113.002 77.6178 113.941 76.9571 114.761C76.5095 115.309 75.8335 115.635 74.7744 115.862L73.8238 116.066ZM91.4988 104.481C90.6583 103.33 90.114 102.621 89.6509 101.967C88.8864 102.139 87.8772 102.369 86.93 102.895C84.3976 104.299 83.7491 106.731 84.8099 108.645C85.9885 110.771 88.3608 110.72 90.1597 110.683C92.0188 110.664 93.4291 110.792 94.1898 112.164C94.9505 113.537 94.6122 114.887 93.2011 115.67C91.2294 116.763 89.2172 115.275 88.2243 114.258L87.73 114.735C88.3925 115.656 89.5545 117.16 89.9448 117.5C90.211 117.479 90.5867 117.473 91.175 117.349C91.7441 117.236 92.4569 117.017 93.23 116.589C95.8397 115.142 96.6881 112.523 95.5416 110.454C94.3632 108.328 92.0897 108.375 90.0352 108.452C88.0494 108.517 86.7959 108.352 86.0461 106.999C85.4565 105.936 85.5652 104.536 86.9765 103.754C88.639 102.832 89.9495 103.874 90.9533 104.91L91.4988 104.481ZM106.959 105.657L106.524 105.187C105.12 106.304 104.9 106.327 103.625 104.947L97.6556 98.4842C96.3806 97.1042 96.4206 96.8866 97.6454 95.574L97.2105 95.1032L92.7951 99.1836L93.23 99.6544C94.6349 98.5368 94.8547 98.5143 96.1297 99.8943L102.099 106.357C103.374 107.737 103.334 107.954 102.109 109.267L102.544 109.738L106.959 105.657ZM108.629 84.4031C107.452 83.8305 105.953 83.0652 105.098 82.5558L104.849 82.9735C105.041 83.4733 105.052 83.7122 104.747 84.2248L100.254 91.7632C99.9373 92.2948 99.7636 92.5001 99.1573 92.5246L98.9194 92.9233C99.9219 93.5725 101.137 94.4258 102.258 95.2225L102.609 94.6341C101.879 93.9159 101.441 93.3976 101.254 92.9774C100.995 92.4626 101.04 91.9999 101.979 90.4238L102.624 89.3415L111.907 94.8764C113.445 95.7932 113.525 96.0471 112.621 97.8238L113.171 98.1522L116.498 92.5696L115.948 92.2412C114.77 93.9584 114.49 93.9972 112.971 93.0915L103.688 87.5566L104.434 86.3034C105.261 84.917 105.586 84.6736 106.215 84.6111C106.685 84.5568 107.292 84.6613 108.346 85.0069L108.629 84.4031ZM109.949 67.2484L108.76 72.0551L109.382 72.209C109.968 70.5778 110.171 70.5827 111.09 71.2882C112.271 72.2181 114.071 73.8706 115.28 74.9667C113.442 75.4911 111.455 76.0697 109.564 76.5354C108.739 76.7412 108.466 76.7419 108.649 75.1705L108.027 75.0166L106.716 80.3168L107.338 80.471C107.78 79.2368 108.08 79.0374 109.746 78.5616C112.081 77.8642 113.667 77.4369 115.156 77.031C115.836 76.858 116.072 76.8252 116.523 76.9366L119.291 77.6214C121.114 78.0727 121.222 78.2817 120.878 80.2235L121.5 80.3771L123.04 74.1542L122.418 74.0003C121.806 75.9213 121.613 76.0557 119.79 75.6043L116.893 74.8876C116.314 74.7444 116.094 74.6216 115.61 74.1831C113.95 72.7021 112.924 71.6966 111.656 70.3807C110.57 69.2467 110.381 68.9041 110.571 67.4023L109.949 67.2484ZM63.7253 19.7821C87.9852 19.7821 107.651 39.4524 107.651 63.7172C107.651 87.9818 87.9852 107.652 63.7253 107.652C39.4655 107.652 19.7992 87.9818 19.7992 63.7172C19.7992 39.4524 39.4655 19.7821 63.7253 19.7821Z" fill="#FEFEFE"/>
<path d="M107.75 64C107.75 88.1598 87.9413 107.75 63.5 107.75C39.0587 107.75 19.25 88.1598 19.25 64C19.25 39.8402 39.0587 20.25 63.5 20.25C87.9413 20.25 107.75 39.8402 107.75 64Z" fill="white" stroke="#014530" stroke-width="0.5"/>
<path d="M56.9692 81.773C56.9692 81.919 56.9768 82.0262 56.9922 82.0956C57.0075 82.1722 57.0381 82.2337 57.0769 82.2799C57.1149 82.3258 57.1764 82.3644 57.253 82.3871C57.33 82.4103 57.4298 82.4333 57.5449 82.4489C57.6679 82.4639 57.821 82.4719 58.0132 82.4719V82.8172H54.7811V82.4719C55.0575 82.464 55.2494 82.4489 55.3722 82.4257C55.4875 82.4024 55.5799 82.372 55.6411 82.3259C55.7024 82.2876 55.7486 82.226 55.7792 82.1492C55.8098 82.0724 55.8254 81.9417 55.8254 81.773V79.0627C55.8254 78.9547 55.8022 78.8858 55.7639 78.8396C55.7253 78.7937 55.6718 78.7707 55.6026 78.7707C55.5413 78.7707 55.4566 78.8013 55.3418 78.8552C55.2267 78.9164 55.0422 79.0318 54.7811 79.2084L54.5512 78.8092L56.5085 77.6417H56.9922C56.9768 77.8799 56.9692 78.2104 56.9692 78.6324V81.773V81.773ZM83.3074 34.0322H92.8084L92.8047 61.6048C92.8049 64.3243 92.2611 66.0197 91.1634 67.6329L89.5128 66.6044C88.9608 67.4231 88.4152 68.0469 87.7209 68.7152L89.0551 70.0783C87.7147 71.3708 86.2355 72.2631 84.4206 73.0416L83.5841 71.4704C82.7255 71.8479 81.8203 72.1508 80.8766 72.3751L81.3026 74.0801C79.3558 74.5591 77.6336 74.6913 75.613 74.6179L75.5969 72.8215C74.5828 72.7661 73.5454 72.634 72.4935 72.4227L72.1208 74.2538C70.2474 73.8909 68.4305 73.3254 66.8349 72.4222C67.0249 72.2431 67.2072 72.0549 67.381 71.8578C69.0929 69.9153 70.0189 67.222 70.1654 63.7961C70.8068 64.5841 71.5767 65.2215 72.4727 65.5389C75.6335 66.6585 79.0286 66.6188 81.8307 64.2973C82.5583 63.6948 83.1476 62.7785 83.3074 61.6048V34.0322V34.0322ZM60.8771 47.6305V46.2076L63.6999 48.3877C62.8117 48.0176 61.8653 47.7708 60.8771 47.6305ZM68.9773 49.8185V46.2076L65.2488 49.087V49.2004C66.0083 49.6923 66.7077 50.3013 67.3344 51.0404L68.9773 49.8185ZM68.9773 53.5355V50.4668L67.6787 51.4695C67.69 51.4846 67.7016 51.4994 67.7132 51.5145C68.2001 52.163 68.6199 52.8379 68.9773 53.5355ZM62.9192 34.1176L64.9398 32.3955L66.9604 34.1176L64.9398 35.7859L62.9192 34.1176ZM59.9264 32.7606V42.1492H44.099C43.428 42.1492 42.9587 42.3498 42.6855 42.7616C42.4124 43.1736 42.2716 43.664 42.2716 44.2322V46.3148C42.2716 46.9274 42.4124 47.4173 42.6855 47.8069C42.9592 48.197 43.4277 48.3973 44.099 48.3973H58.7525C62.4074 48.3973 65.1574 49.6224 66.9849 52.0617C68.8202 54.5007 69.7344 57.4743 69.7344 60.9603V62.5307C69.7344 66.351 68.8202 69.3137 66.9849 71.3961C65.1495 73.4791 62.3921 74.5258 58.7211 74.5258H34.2106V65.1039H58.7287C59.5804 65.1039 60.1583 64.847 60.4629 64.3238C60.7674 63.8005 60.9237 63.0209 60.9237 61.985V60.9381C60.9237 59.9022 60.7674 59.1228 60.4629 58.5994C60.1583 58.0759 59.5804 57.8197 58.7287 57.8197H43.7167C40.0531 57.8197 37.4291 56.6835 35.8434 54.4118C34.2577 52.1397 33.4609 49.4443 33.4609 46.3148V44.2322C33.4609 40.7571 34.258 37.9725 35.8434 35.8902C37.4288 33.8076 40.0531 32.7606 43.7167 32.7606H59.9264V32.7606ZM68.9773 37.0416V33.4311L65.2488 36.3101V39.8144L68.9773 37.0416V37.0416ZM60.8771 37.0416V33.4311L64.6056 36.3101V39.8144L60.8771 37.0416V37.0416ZM60.8771 41.3006V37.6898L64.6056 40.5691V44.0734L60.8771 41.3006ZM68.9773 41.3006V37.6898L65.2488 40.5691V44.0729L68.9773 41.3006ZM68.9773 45.5596V41.9491L65.2488 44.8281V48.3319L68.9773 45.5596V45.5596ZM60.8771 45.5596V41.9491L64.6056 44.8281V48.3323L60.8771 45.5596V45.5596ZM63.0716 94.1326C63.0716 90.6951 63.0567 87.6911 63.0567 87.6911C60.2771 85.0203 56.1351 84.2199 51.4015 85.903C48.3008 86.7817 47.6577 86.9272 46.217 86.6639C43.9689 91.183 42.5628 93.7853 42.5628 93.7853C43.2373 94.0084 45.2251 93.7853 46.9278 93.3421C50.752 92.347 59.4495 90.3774 63.0716 94.1326V94.1326ZM63.203 94.1326C63.203 90.6951 63.2178 87.6911 63.2178 87.6911C65.9976 85.0203 70.1394 84.2199 74.873 85.903C77.9737 86.7817 78.6168 86.9272 80.0575 86.6639C82.3056 91.183 83.7118 93.7853 83.7118 93.7853C83.0375 94.0084 81.0495 93.7853 79.3467 93.3421C75.5226 92.347 66.8251 90.3774 63.203 94.1326V94.1326ZM63.203 95.3194V95.083C70.6512 92.9118 80.1168 95.7226 87.6068 95.6233C87.6068 95.6233 85.3619 92.4251 82.9992 88.6165C83.0967 88.6068 83.1896 88.595 83.2773 88.5804C85.8176 92.702 88.1084 95.8543 88.1084 95.8543C82.4578 96.2365 71.3181 93.7925 63.203 95.3194V95.3194ZM63.2291 94.9746C63.2291 94.8397 63.2296 94.7053 63.2306 94.5714C68.6602 91.9263 74.4247 93.0301 78.6784 93.8728C80.7916 94.2915 83.3922 94.6317 85.0099 94.6317C85.0099 94.6317 83.5742 92.2225 81.3955 88.0621C81.6146 88.0446 81.8314 88.0169 82.0527 87.9804C84.6222 92.4409 86.5208 95.2387 86.5208 95.2387C79.0308 95.338 70.8364 92.119 63.2291 94.9746V94.9746ZM63.0716 95.3194V95.083C55.6236 92.9118 46.1577 95.7226 38.6677 95.6233C38.6677 95.6233 40.9126 92.4251 43.2753 88.6165C43.1778 88.6068 43.0849 88.595 42.9972 88.5804C40.4569 92.702 38.1661 95.8543 38.1661 95.8543C43.8167 96.2365 54.9565 93.7925 63.0716 95.3194V95.3194ZM63.0454 94.9746C63.0454 94.8397 63.0449 94.7053 63.0439 94.5714C57.6143 91.9263 51.8501 93.0301 47.5962 93.8728C45.4832 94.2915 42.8824 94.6317 41.2646 94.6317C41.2646 94.6317 42.7003 92.2225 44.879 88.0621C44.6599 88.0446 44.4431 88.0169 44.2218 87.9804C41.6524 92.4409 39.7537 95.2387 39.7537 95.2387C47.244 95.338 55.4381 92.119 63.0454 94.9746V94.9746ZM59.7253 82.6561V82.3871C59.8864 82.3797 60.0324 82.3644 60.1551 82.3412C60.3008 82.3105 60.4389 82.2643 60.5619 82.1952C60.6925 82.1265 60.8077 82.0494 60.9074 81.9496C61.0225 81.8345 61.1226 81.6961 61.2068 81.5501C61.2839 81.3965 61.3451 81.2278 61.391 81.0514C61.437 80.8668 61.4755 80.6828 61.4985 80.4906L61.4604 80.4753C61.2683 80.6057 61.0764 80.7055 60.8921 80.7594C60.7079 80.8209 60.4853 80.8515 60.2243 80.8515C59.9249 80.8515 59.6792 80.7902 59.4719 80.6596C59.2647 80.5368 59.1108 80.3599 59.0115 80.1373C58.9039 79.9071 58.85 79.6462 58.85 79.3389C58.85 79.0088 58.9347 78.7092 59.0881 78.4483C59.2415 78.1872 59.4719 77.9873 59.7636 77.8492C60.0556 77.7111 60.4006 77.6417 60.8 77.6417C61.1991 77.6417 61.5449 77.7188 61.8134 77.8875C62.0898 78.0565 62.297 78.2946 62.4351 78.617C62.5736 78.932 62.6425 79.3157 62.6425 79.7611C62.6425 80.3908 62.5349 80.9283 62.3202 81.3814C62.1051 81.8268 61.7978 82.1801 61.391 82.4333C60.9843 82.6868 60.5004 82.8325 59.9249 82.8787L59.7253 82.6561ZM60.6543 80.3372C60.7464 80.3372 60.8385 80.3295 60.9151 80.3139C60.9917 80.291 61.0687 80.268 61.1455 80.2297C61.2144 80.1988 61.2759 80.1529 61.3374 80.0993C61.3989 80.0454 61.4449 80.0071 61.4604 79.9762C61.4834 79.9454 61.4985 79.8918 61.514 79.8302C61.5294 79.769 61.537 79.6845 61.537 79.5768C61.537 79.0854 61.4679 78.7092 61.3374 78.4483C61.2068 78.1872 61.0149 78.0565 60.7617 78.0565C60.6157 78.0565 60.493 78.0874 60.3855 78.1486C60.2858 78.2025 60.2089 78.287 60.1398 78.3865C60.0783 78.4943 60.0323 78.617 60.0015 78.763C59.9787 78.9088 59.9634 79.0698 59.9634 79.2467C59.9634 79.9762 60.1936 80.3372 60.6543 80.3372V80.3372ZM63.6406 82.587V81.6502H64.3164C64.3774 81.919 64.4774 82.1188 64.6155 82.2569C64.7538 82.3871 64.9304 82.4563 65.1529 82.4563C65.4217 82.4563 65.6212 82.3721 65.7516 82.2031C65.8821 82.0339 65.9515 81.773 65.9515 81.42C65.9515 81.0741 65.8667 80.8132 65.6978 80.6287C65.5291 80.4446 65.2834 80.3525 64.9687 80.3525C64.8459 80.3525 64.7155 80.3681 64.5772 80.3908C64.4312 80.4061 64.3085 80.437 64.201 80.4676L63.8629 80.2603V77.6958H66.074C66.1661 77.6958 66.2352 77.6958 66.2735 77.6803C66.32 77.6649 66.3583 77.6499 66.381 77.619C66.4116 77.5881 66.4425 77.5345 66.4734 77.45H66.8878L66.811 78.6479H64.5083V79.999C64.6617 79.953 64.8074 79.9224 64.9687 79.8992C65.1223 79.8762 65.3142 79.8685 65.5442 79.8685C65.8514 79.8685 66.1278 79.9224 66.3583 80.0375C66.5884 80.1529 66.7727 80.3219 66.9031 80.5368C67.0338 80.7594 67.0953 81.0128 67.0953 81.3122C67.0953 81.6578 67.0182 81.9417 66.8648 82.1801C66.7033 82.4103 66.481 82.587 66.1893 82.7021C65.8974 82.8172 65.5521 82.8787 65.1453 82.8787C64.8766 82.8787 64.6155 82.8481 64.3391 82.7942C64.0704 82.748 63.8325 82.6715 63.6406 82.587V82.587ZM71.7552 77.949L69.6746 82.8325H68.9072V82.5717L70.7878 78.7554V78.7018H69.1218C69.0067 78.7018 68.9223 78.7092 68.8533 78.7245C68.7842 78.7401 68.7303 78.7707 68.6921 78.8092C68.6459 78.8475 68.6152 78.9011 68.5846 78.9626C68.5614 79.0241 68.5305 79.124 68.5002 79.2544H68.0701L68.1623 77.6958H71.7552V77.949V77.949Z" fill="#014530"/>
<path fill-rule="evenodd" clip-rule="evenodd" d="M63.4999 24C72.8081 24 81.3812 27.1034 88.2211 32.3171H82.1558V61.3415C82.0519 61.935 81.755 62.4711 81.2813 62.8585C78.9829 64.7388 76.1963 64.7528 73.4898 63.8064C72.8627 63.5868 72.3251 63.0933 71.9122 62.5922L71.8583 62.5269C71.8586 62.4816 71.8586 62.4363 71.8586 62.3911V60.8263C71.8586 58.995 71.6201 57.2151 71.0947 55.527C71.0947 54.5911 71.0947 40.9221 71.0947 29.9804L67.954 32.3754L65.3217 30.1598L62.6767 32.3855C61.5166 31.5011 60.9047 31.0346 59.5225 29.9806V31.0501H43.9064C42.5337 31.0501 41.16 31.1845 39.8622 31.5188C46.514 26.7879 54.6771 24 63.4999 24V24ZM95.1406 39.0332C100.684 45.8758 104 54.555 104 64.0001C104 76.1374 98.5255 87.0109 89.8835 94.3469C88.2657 92.1303 86.7188 89.7847 85.2713 87.4658L84.6742 86.5093L83.9003 86.6338L83.4739 85.9028L82.3118 86.0928C82.3086 86.0933 82.3051 86.0938 82.3016 86.0945C82.2335 85.9594 82.1653 85.8242 82.0975 85.6894L81.528 84.559L80.2704 84.7857C80.0277 84.8298 79.7804 84.867 79.5334 84.8746C78.5448 84.9051 76.8354 84.3543 75.8611 84.0788C74.4986 83.605 73.0972 83.2948 71.7041 83.1806L73.8977 78.0965V76.031L74.2823 74.1658C74.3179 74.1702 74.3536 74.1748 74.3892 74.179L74.4059 76.0539L76.0296 76.1118C78.1839 76.1888 80.1411 76.0379 82.2383 75.5284L83.8946 75.126L83.5599 73.8039L84.2126 75.0142L85.6479 74.4065C87.5981 73.5806 89.303 72.5776 90.8343 71.1197L92.0674 69.9458L91.2582 69.1296L92.2693 69.7513L93.1872 68.4187C94.683 66.2479 95.1374 64.0809 95.1379 61.4687L95.1406 39.0332V39.0332ZM85.9505 97.2942C79.525 101.53 71.8048 104 63.4999 104C55.1952 104 47.4755 101.529 41.0498 97.2945C42.4808 97.2418 43.9256 97.1118 45.2966 96.9929C48.1228 96.7475 50.9435 96.4635 53.7779 96.3222C56.4159 96.1907 59.2142 96.1583 61.8697 96.512L63.0047 96.8738L63.5026 96.7812L64.0008 96.8738L65.1355 96.512C67.7913 96.1583 70.5896 96.1907 73.2276 96.3222C76.062 96.4635 78.883 96.7475 81.7089 96.9929C83.0782 97.1118 84.5212 97.2413 85.9505 97.2942V97.2942ZM37.12 94.3495C28.4757 87.0141 23 76.1389 23 64.0001C23 53.9364 26.764 44.7421 32.9757 37.7121C32.1627 39.7394 31.8587 41.9569 31.8587 44.1587V46.2337C31.8587 49.4947 32.6694 52.575 34.5685 55.2619C36.7487 58.3466 40.2505 59.3752 43.9064 59.3752H59.0542C59.1265 59.3752 59.2773 59.3799 59.3777 59.4018C59.5415 59.7728 59.5696 60.4507 59.5696 60.8042V61.8473C59.5696 62.2003 59.5415 62.8792 59.3777 63.2496C59.2773 63.2718 59.1265 63.2764 59.0542 63.2764H32.6151V76.0212H55.9177L52.5298 78.0162L54.0443 80.6096L53.3717 80.6281V83.4607C52.6227 83.6161 51.8778 83.8238 51.1441 84.0788C50.1701 84.3543 48.4605 84.9051 47.472 84.8746C47.2248 84.867 46.9776 84.8298 46.7348 84.7857L45.4773 84.559L44.9078 85.6894C44.84 85.8242 44.772 85.9594 44.7037 86.0945C44.7002 86.0938 44.6969 86.0933 44.6937 86.0928L43.5316 85.9028L43.1051 86.6338L42.331 86.5093L41.7339 87.4658C40.2859 89.7857 38.7382 92.1323 37.12 94.3495V94.3495ZM69.0832 75.8228H72.7855L72.2444 75.7194C70.3762 75.362 68.5217 74.8126 66.83 73.94C65.3387 74.9571 63.6232 75.5424 61.8174 75.8198C62.0631 75.8585 62.3039 75.9203 62.5356 76.0084V75.8228H65.5884L65.6786 75.5779H69.0992L69.0832 75.8228V75.8228ZM62.6715 83.6259C62.6607 83.6328 62.6498 83.6397 62.6388 83.6463C62.2715 83.8723 61.8804 84.0375 61.4734 84.1514C62.1777 84.4663 62.8569 84.8581 63.5026 85.3327C64.0312 84.944 64.5823 84.611 65.151 84.3304C64.902 84.3129 64.655 84.279 64.4083 84.2322C64.0375 84.1677 63.6701 84.0606 63.3254 83.9105L62.6715 83.6259V83.6259ZM59.6755 76.0116C59.4834 76.0175 59.291 76.0207 59.0981 76.0212L59.0806 76.29C59.1746 76.2349 59.2718 76.1839 59.3717 76.1371C59.4714 76.0906 59.5726 76.0488 59.6755 76.0116ZM59.5225 46.3248V43.7617H44.2922C44.2703 43.7617 44.2404 43.7619 44.2092 43.7634C44.1619 43.8884 44.1474 44.025 44.1474 44.1587V46.2337C44.1474 46.3452 44.1556 46.5003 44.196 46.6278C44.2319 46.63 44.2673 46.6305 44.2922 46.6305H59.0781C59.2267 46.6305 59.375 46.6322 59.5225 46.6359V46.3248Z" fill="#DDA708"/>
</svg>
